<svg width="24" height="24" viewBox="0 0 24 24" fill="none" xmlns="http://www.w3.org/2000/svg">
<path d="M21 10.9722C21.0034 12.3654 20.695 13.7398 20.1 14.9833C19.3944 16.4735 18.3097 17.7269 16.9674 18.6031C15.6251 19.4794 14.0782 19.9438 12.5 19.9444C11.1801 19.9481 9.8781 19.6226 8.69999 18.9944L3 21L4.9 14.9833C4.30493 13.7398 3.99656 12.3654 4 10.9722C4.00061 9.30632 4.44061 7.67348 5.27072 6.2566C6.10082 4.83973 7.28825 3.69479 8.69999 2.95003C9.8781 2.3219 11.1801 1.9964 12.5 2.00003H13C15.0843 2.12141 17.053 3.05005 18.5291 4.60815C20.0052 6.16626 20.885 8.24432 21 10.4445V10.9722Z" fill="white"/>
</svg>
