<svg width="78" height="27" viewBox="0 0 78 27" fill="none" xmlns="http://www.w3.org/2000/svg">
<path d="M45.4806 5.70406e-05C44.1121 0.00914886 43.0652 1.07592 43.0758 2.45182C43.0865 3.82317 44.0969 4.83236 45.47 4.84297C46.8583 4.85357 47.8992 3.82317 47.9007 2.43666C47.9022 1.06986 46.8293 -0.00903478 45.4806 5.70406e-05Z" fill="white"/>
<path d="M2.40489 5.70406e-05C1.03638 0.00914886 -0.0105869 1.07592 8.07944e-05 2.45182C0.0107485 3.82317 1.02114 4.83236 2.39423 4.84297C3.78256 4.85357 4.82342 3.82317 4.82495 2.43666C4.82647 1.06986 3.7536 -0.00903478 2.40489 5.70406e-05Z" fill="white"/>
<path d="M43.2879 21.6002C44.7372 21.6002 46.1469 21.6002 47.6083 21.6002C47.6083 16.7527 47.6083 11.9371 47.6083 7.11841C46.1423 7.11841 44.7189 7.11841 43.2879 7.11841C43.2879 11.9568 43.2879 16.7724 43.2879 21.6002Z" fill="white"/>
<path d="M0.2453 21.6002C1.69459 21.6002 3.10425 21.6002 4.56573 21.6002C4.56573 16.7527 4.56573 11.9371 4.56573 7.11841C3.09968 7.11841 1.6763 7.11841 0.2453 7.11841C0.2453 11.9568 0.2453 16.7724 0.2453 21.6002Z" fill="white"/>
<path d="M16.5524 6.05484C12.6678 6.05484 9.50562 9.19758 9.50562 13.0616V21.5958H13.826V13.0616C13.826 11.5675 15.0483 10.3507 16.5524 10.3507C18.0566 10.3507 19.2788 11.5675 19.2788 13.0616V21.6276H23.5992V13.0616C23.5977 9.19758 20.437 6.05484 16.5524 6.05484Z" fill="white"/>
<path d="M70.4998 22.6875C74.3844 22.6875 77.5466 19.5448 77.5466 15.6807V7.14806H73.2262V15.6822C73.2262 17.1763 72.004 18.3931 70.4998 18.3931C68.9957 18.3931 67.7734 17.1763 67.7734 15.6822V7.11624H63.453V15.6822C63.453 19.5448 66.6137 22.6875 70.4998 22.6875Z" fill="white"/>
<path d="M52.103 7.24622C52.1015 7.24622 52.1 7.24622 52.0984 7.24622C52.0984 12.0861 52.0984 16.9002 52.0984 21.728C53.5477 21.728 54.9574 21.728 56.4189 21.728C56.4189 18.2791 56.4189 14.8485 56.4189 11.4194C57.2799 11.4194 58.1394 11.4194 58.9974 11.4194C58.9974 9.96165 58.9974 8.54635 58.9974 7.12348C58.1394 7.12348 57.2845 7.12348 56.4296 7.12348C56.4951 5.68698 57.6883 4.53686 59.1498 4.53686V0.242493C55.2652 0.242493 52.1045 3.38372 52.103 7.24622Z" fill="white"/>
<path d="M37.0281 13.2605C36.3088 12.965 35.5987 12.7119 34.8946 12.4998C34.1905 12.2876 33.5946 12.0467 33.1055 11.777C32.6163 11.5072 32.3709 11.1709 32.3709 10.7663C32.3709 10.4344 32.5431 10.142 32.886 9.88891C33.2304 9.63585 33.6983 9.50856 34.2926 9.50856C34.762 9.50856 35.2192 9.62524 35.6672 9.8586C36.1153 10.092 36.4094 10.2814 36.5496 10.4253C36.6898 10.5693 36.7919 10.6844 36.8544 10.7678L39.0885 8.23571L38.5414 7.62959C38.1879 7.24622 37.5539 6.85224 36.6426 6.44917C35.7312 6.0461 34.733 5.84305 33.6495 5.84305C31.9411 5.84305 30.501 6.35067 29.3291 7.36593C28.1571 8.38118 27.5704 9.51463 27.5704 10.7693C27.5704 11.733 27.8158 12.5301 28.305 13.162C28.7942 13.7938 29.3916 14.2606 30.0941 14.5606C30.7966 14.8606 31.5083 15.1167 32.2276 15.3304C32.947 15.5425 33.5504 15.791 34.0396 16.0759C34.5288 16.3608 34.7742 16.7153 34.7742 17.1396C34.7742 17.5639 34.6005 17.9094 34.2515 18.1731C33.9025 18.4367 33.3843 18.5701 32.697 18.5701C32.0722 18.5701 31.4672 18.4064 30.885 18.0806C30.3014 17.7548 29.9188 17.4957 29.736 17.3033C29.5531 17.1108 29.4205 16.9532 29.3367 16.829L26.9304 19.2065L27.1498 19.5323C27.3068 19.7187 27.5582 19.949 27.9072 20.2233C28.2562 20.4975 28.6646 20.7748 29.134 21.0552C29.6034 21.3355 30.213 21.5734 30.9628 21.7704C31.7125 21.9674 32.505 22.0659 33.3386 22.0659C35.2756 22.0659 36.7995 21.5946 37.909 20.6521C39.0184 19.7096 39.5731 18.5383 39.5731 17.1411C39.5731 16.1668 39.3278 15.3516 38.8386 14.6939C38.3525 14.0317 37.7474 13.5559 37.0281 13.2605Z" fill="white"/>
<path d="M68.599 22H72.8244V22.4485C72.8244 24.6577 71.0335 26.4485 68.8244 26.4485H68.599V22Z" fill="white"/>
</svg>
